<?xml version="1.0" standalone="no"?>
<!DOCTYPE svg PUBLIC "-//W3C//DTD SVG 20010904//EN"
 "http://www.w3.org/TR/2001/REC-SVG-20010904/DTD/svg10.dtd">
<svg version="1.0" xmlns="http://www.w3.org/2000/svg"
 width="1000.000000pt" height="1000.000000pt" viewBox="0 0 1000.000000 1000.000000"
 preserveAspectRatio="xMidYMid meet">
<metadata>
Created by potrace 1.11, written by Peter Selinger 2001-2013
</metadata>
<g transform="translate(0.000000,1000.000000) scale(0.100000,-0.100000)"
fill="#000000" stroke="none">
<path d="M740 5690 l0 -4040 836 0 836 0 -6 1223 c-2 672 -7 1254 -11 1292 -3
39 -37 792 -75 1675 -38 883 -72 1650 -75 1705 -3 62 -2 94 4 85 5 -8 61 -159
124 -335 63 -176 541 -1499 1062 -2940 521 -1441 954 -2639 962 -2663 l15 -42
575 2 574 3 229 630 c347 960 1930 5338 1936 5354 2 8 6 12 8 10 2 -2 -27
-697 -65 -1544 -37 -847 -70 -1623 -74 -1725 -4 -102 -9 -196 -12 -210 -4 -14
-8 -586 -10 -1272 l-5 -1248 836 0 836 0 0 4040 0 4040 -1093 0 -1093 0 -273
-777 c-617 -1752 -870 -2471 -1317 -3740 -258 -733 -472 -1329 -475 -1325 -4
4 -180 498 -392 1097 -589 1665 -1635 4623 -1659 4688 l-21 57 -1088 0 -1089
0 0 -4040z"/>
<path d="M2610 810 l0 -550 115 0 115 0 0 121 c0 113 -15 489 -24 622 -2 32
-2 56 2 53 3 -3 69 -183 147 -399 l142 -392 80 -3 81 -3 44 123 c25 68 90 247
144 398 72 199 100 266 102 245 2 -16 -1 -127 -7 -246 -6 -119 -11 -285 -11
-368 l0 -151 115 0 115 0 0 550 0 551 -151 -3 -151 -3 -134 -380 c-74 -209
-136 -387 -140 -395 -4 -11 -284 754 -284 777 0 1 -67 3 -150 3 l-150 0 0
-550z"/>
<path d="M4297 1353 c-3 -4 -93 -244 -200 -533 -108 -289 -199 -533 -202 -543
-7 -16 1 -17 116 -15 l123 3 35 108 35 107 202 0 202 0 6 -25 c4 -14 20 -63
37 -110 l31 -85 119 0 c65 0 119 3 118 8 0 4 -91 250 -202 547 l-202 540 -107
3 c-58 1 -109 -1 -111 -5z m174 -470 c34 -104 64 -194 67 -200 3 -10 -28 -13
-133 -13 -105 0 -136 3 -133 13 3 6 33 96 67 200 35 103 64 187 66 187 2 0 31
-84 66 -187z"/>
<path d="M5030 811 l0 -551 110 0 110 0 0 200 0 200 93 0 92 0 103 -200 104
-200 124 0 c68 0 124 2 124 3 0 2 -22 44 -48 93 -27 49 -81 150 -120 226 l-72
136 44 26 c115 67 169 198 145 349 -18 111 -88 195 -198 239 -52 21 -74 23
-333 26 l-278 3 0 -550z m510 343 c50 -29 75 -77 75 -146 0 -62 -17 -94 -69
-132 -24 -18 -45 -21 -162 -24 l-134 -4 0 160 c0 87 3 162 8 166 4 5 61 6 127
4 98 -3 127 -8 155 -24z"/>
<path d="M6030 810 l0 -550 115 0 115 0 0 550 0 550 -115 0 -115 0 0 -550z"/>
<path d="M6470 810 l0 -550 115 0 115 0 0 158 1 157 57 63 57 63 140 -220 140
-220 137 -1 138 0 -157 238 c-252 382 -245 372 -235 385 5 7 91 114 190 239
100 125 182 230 182 233 0 3 -62 5 -137 5 l-138 0 -80 -103 c-43 -56 -128
-166 -187 -245 l-108 -142 0 245 0 245 -115 0 -115 0 0 -550z"/>
</g>
</svg>
